<?xml version="1.0" encoding="utf-8"?>
<!-- Generator: Adobe Illustrator 20.0.0, SVG Export Plug-In . SVG Version: 6.00 Build 0)  -->
<svg version="1.1"
	 id="Capa_1" xmlns:cc="http://creativecommons.org/ns#" xmlns:dc="http://purl.org/dc/elements/1.1/" xmlns:rdf="http://www.w3.org/1999/02/22-rdf-syntax-ns#" xmlns:svg="http://www.w3.org/2000/svg"
	 xmlns="http://www.w3.org/2000/svg" xmlns:xlink="http://www.w3.org/1999/xlink" x="0px" y="0px" width="512px" height="512px"
	 viewBox="0 0 512 512" style="enable-background:new 0 0 512 512;" xml:space="preserve">
<style type="text/css">
	.st0{fill:#e191a8;}
</style>
<g id="g3">
	<path id="path5" class="st0" d="M477.7,127.5c-22.9-39.2-53.9-70.3-93.2-93.2C345.3,11.4,302.5,0,256,0
		c-46.4,0-89.3,11.4-128.5,34.3c-39.2,22.9-70.3,53.9-93.2,93.2C11.4,166.7,0,209.6,0,256c0,46.4,11.4,89.3,34.3,128.5
		c22.9,39.2,53.9,70.3,93.2,93.2C166.7,500.6,209.6,512,256,512s89.3-11.4,128.5-34.3c39.2-22.9,70.3-53.9,93.2-93.2
		C500.6,345.3,512,302.4,512,256C512,209.6,500.6,166.7,477.7,127.5z M422,270.7L391.7,301c-4.2,4.2-9.2,6.3-15,6.3
		c-5.8,0-10.8-2.1-15-6.3l-63-63v167.3c0,5.8-2.1,10.8-6.3,15c-4.2,4.2-9.2,6.3-15,6.3h-42.7c-5.8,0-10.8-2.1-15-6.3
		c-4.2-4.2-6.3-9.2-6.3-15V238l-63,63c-4,4-9,6-15,6c-6,0-11-2-15-6L90,270.7c-4-4-6-9-6-15c0-6,2-11,6-15L210.7,120L241,89.7
		c4-4,9-6,15-6c6,0,11,2,15,6l30.3,30.3L422,240.7c4,4,6,9,6,15C428,261.7,426,266.7,422,270.7z"/>
</g>
<g id="g7">
</g>
<g id="g9">
</g>
<g id="g11">
</g>
<g id="g13">
</g>
<g id="g15">
</g>
<g id="g17">
</g>
<g id="g19">
</g>
<g id="g21">
</g>
<g id="g23">
</g>
<g id="g25">
</g>
<g id="g27">
</g>
<g id="g29">
</g>
<g id="g31">
</g>
<g id="g33">
</g>
<g id="g35">
</g>
</svg>
